<?xml version="1.0" encoding="UTF-8" standalone="no"?>
<svg
   xmlns="http://www.w3.org/2000/svg"
   viewBox="0 0 198.4375 143.13959"
   height="541"
   width="750">
  <g
     style="stroke-width:0.99838382"
     transform="matrix(1.0016188,0,0,1.0016188,-33.310441,-60.936027)"
     id="face">
    <path
       style="opacity:1;fill:#4d4d4d;fill-opacity:1;stroke:none;stroke-width:0.00733903;stroke-linecap:round;stroke-linejoin:round;stroke-miterlimit:4;stroke-dasharray:none;stroke-opacity:1"
       d="m 185.60304,62.908569 c 0,0 42.33333,73.323441 42.33333,73.323441 0,0 3.43703,-1.98438 3.43703,-1.98438 0,0 -42.33333,-73.323437 -42.33333,-73.323437 0,0 -3.43703,1.984376 -3.43703,1.984376"
       id="right-temple" />
    <path
       id="right-hinge"
       d="m 204.91507,134.24763 c 0,0 26.45833,0 26.45833,0 0,0 0,5.29167 0,5.29167 0,0 -26.45833,0 -26.45833,0 0,0 0,-5.29167 0,-5.29167"
       style="opacity:1;fill:#666666;fill-opacity:1;stroke:none;stroke-width:0.05547615;stroke-linecap:round;stroke-linejoin:round;stroke-miterlimit:4;stroke-dasharray:none;stroke-opacity:1" />
    <path
       style="opacity:1;fill:#1a1a1a;fill-opacity:1;stroke:none;stroke-width:0.01467806;stroke-linecap:round;stroke-linejoin:round;stroke-miterlimit:4;stroke-dasharray:none;stroke-opacity:1"
       d="m 178.34965,96.695962 c -19.95701,0.0223 -36.82609,14.716408 -39.48702,34.395828 0,0 5.35267,0 5.35267,0 2.61997,-16.74255 17.10449,-29.09257 34.13435,-29.10417 9.16842,0 17.96133,3.62383 24.44438,10.0743 6.48306,6.45047 10.1252,15.19919 10.1252,24.32153 0,9.12234 -3.64214,17.87106 -10.12519,24.32153 -6.48306,6.45047 -15.27597,10.07431 -24.44439,10.07431 -17.02258,-0.021 -31.49629,-12.36877 -34.11513,-29.10417 0,0 -5.37033,0 -5.37033,0 2.66085,19.67884 19.52905,34.37275 39.48546,34.39583 10.57895,0 20.72461,-4.18135 28.20506,-11.6242 7.48045,-7.44285 11.68292,-17.53752 11.68292,-28.0633 -1e-5,-21.9188 -17.85846,-39.687488 -39.88798,-39.687488 0,0 0,0 0,0"
       id="right-rim" />
    <path
       style="opacity:1;fill:#4d4d4d;fill-opacity:1;stroke:none;stroke-width:0.00733903;stroke-linecap:round;stroke-linejoin:round;stroke-miterlimit:4;stroke-dasharray:none;stroke-opacity:1"
       d="m 79.026975,62.908612 c 0,0 -42.333334,73.323448 -42.333334,73.323448 0,0 -3.437037,-1.98437 -3.437037,-1.98437 0,0 42.333334,-73.323453 42.333334,-73.323453 0,0 3.437037,1.984375 3.437037,1.984375"
       id="left-temple" />
    <path
       style="opacity:1;fill:#666666;fill-opacity:1;stroke:none;stroke-width:0.01467806;stroke-linecap:round;stroke-linejoin:round;stroke-miterlimit:4;stroke-dasharray:none;stroke-opacity:1"
       d="m 59.714962,139.53942 c 0,0 -26.458334,0 -26.458334,0 0,0 0,-5.29167 0,-5.29167 0,0 26.458334,0 26.458334,0 0,0 0,5.29167 0,5.29167"
       id="left-hinge" />
    <path
       style="opacity:1;fill:#1a1a1a;fill-opacity:1;stroke:none;stroke-width:0.01467806;stroke-linecap:round;stroke-linejoin:round;stroke-miterlimit:4;stroke-dasharray:none;stroke-opacity:1"
       d="m 86.280397,96.695952 c -22.029521,0 -39.887976,17.768698 -39.887976,39.687498 0,21.9188 17.858455,39.6875 39.887976,39.6875 19.956413,-0.0231 36.824613,-14.71699 39.485463,-34.39583 0,0 -5.37085,0 -5.37085,0 -2.61881,16.73521 -17.09223,29.0829 -34.114613,29.10417 -9.168424,0 -17.961334,-3.62384 -24.444388,-10.07431 -6.483054,-6.45047 -10.125195,-15.19919 -10.125192,-24.32153 0,-9.12234 3.642142,-17.87106 10.125196,-24.32153 6.483054,-6.45047 15.275962,-10.0743 24.444384,-10.0743 17.029863,0.0116 31.514373,12.36162 34.134343,29.10417 0,0 5.35268,0 5.35268,0 -2.66092,-19.67943 -19.53001,-34.373528 -39.487023,-34.395838 0,0 0,0 0,0"
       id="left-rim" />
    <rect
       y="133.73761"
       x="120.4028"
       height="5.2916665"
       width="23.812502"
       id="bridge"
       style="opacity:1;fill:#ececec;fill-opacity:1;stroke:none;stroke-width:0.7924673;stroke-linecap:round;stroke-linejoin:round;stroke-miterlimit:4;stroke-dasharray:none;stroke-opacity:1" />
    <path
       id="mustache"
       style="font-style:normal;font-variant:normal;font-weight:normal;font-stretch:normal;font-size:87.21029663px;line-height:1.25;font-family:'Times New Roman';-inkscape-font-specification:'Times New Roman, ';letter-spacing:0px;word-spacing:0px;fill:#1a1a1a;fill-opacity:1;stroke:none;stroke-width:0.00489269"
       d="m 87.728397,203.65914 c 0,0 -1.738812,0 -1.738812,0 0.761765,-5.54297 3.01394,-10.05701 6.756526,-13.54212 3.709463,-3.45191 7.832929,-5.17787 12.370409,-5.17787 2.38465,0 5.15019,0.3817 8.29661,1.14511 3.17955,0.7634 5.647,1.1451 7.40237,1.1451 2.38466,0 4.60372,-1.01235 6.65718,-3.03702 2.08657,-1.99149 3.36169,-4.76297 3.82538,-8.31445 0,0 2.0369,0 2.0369,0 0.46368,3.55148 1.72225,6.32296 3.7757,8.31445 2.05345,2.02467 4.28907,3.03702 6.70684,3.03702 1.75538,0 4.20628,-0.3817 7.3527,-1.1451 3.14642,-0.76341 5.92852,-1.14511 8.3463,-1.14511 4.50435,0 8.62782,1.72596 12.3704,5.17787 3.74259,3.48511 5.9782,7.99915 6.70685,13.54212 0,0 -1.73881,0 -1.73881,0 -0.92737,-3.8834 -2.4509,-6.73786 -4.57059,-8.5634 -2.08658,-1.79234 -4.38844,-2.68851 -6.90557,-2.68851 -1.9541,0 -4.53748,0.3651 -7.75013,1.09532 -3.17955,0.7634 -5.89541,1.1451 -8.14759,1.1451 -3.34514,0 -6.59092,-1.22809 -9.73735,-3.68425 -3.14642,-2.45616 -5.58075,-6.12382 -7.303,-11.00297 -1.75537,4.77957 -4.23939,8.41404 -7.45205,10.9034 -3.21267,2.52254 -6.49157,3.78382 -9.83672,3.78382 -2.25217,0 -4.96802,-0.3817 -8.14756,-1.1451 -3.21267,-0.73022 -5.79605,-1.09532 -7.750148,-1.09532 -2.517138,0 -4.818992,0.89617 -6.905563,2.68851 -2.119695,1.82554 -3.659785,4.68 -4.620272,8.5634 0,0 0,0 0,0" />
  </g>
</svg>
